#!OML:ASF F:\VICON\USERDATA\Patient Classification 1\PLAYGROUND\JustinFriday\JustinFriday.ASF
:FULLY-SPECIFIED
:DEGREES
2010
root -3.47696 17.807 25.691 -537.423 -177.858 175.196
lowerback 12.2072 -0.14904 6.01918
upperback 3.63311 0.734556 5.60857
thorax -3.02633 0.340559 2.37468
lowerneck -5.43037 5.53169 -1.58601
upperneck 16.0683 8.25145 -3.46432
head 5.84011 3.67293 -0.278945
rclavicle -3.57812e-015 -7.15625e-014
rhumerus -41.0499 1.31921 -73.8947
rradius 66.8753
rwrist 359.343
rhand -12.5683 -25.3506
rfingers 7.12502
rthumb 13.5093 -54.8924
lclavicle -3.57812e-015 -7.15625e-014
lhumerus 30.3109 43.793 68.0963
lradius 61.7149
lwrist 26.658
lhand -50.855 -1.23879
lfingers 7.12502
lthumb -23.4095 27.3574
rfemur -9.18336 0.591488 27.2698
rtibia 29.3142
rfoot -16.0152 -7.26518
rtoes 4.1424
lfemur -23.3612 3.75296 -8.26048
ltibia 62.0815
lfoot -8.7242 -5.46751
ltoes -24.7007
2011
root -3.50188 17.7952 25.8572 -537.328 -177.721 175.116
lowerback 11.7955 -0.0652098 6.35663
upperback 4.03955 0.802901 5.50037
thorax -2.36572 0.38983 2.05988
lowerneck -6.18406 5.58634 -1.59408
upperneck 16.3759 8.37333 -3.48318
head 6.06919 3.70915 -0.24555
rclavicle -1.47101e-014 -9.54166e-014
rhumerus -40.2455 0.777162 -73.6829
rradius 66.6649
rwrist 359.291
rhand -12.3264 -25.3105
rfingers 7.12502
rthumb 13.7424 -54.8367
lclavicle -1.47101e-014 -9.54166e-014
lhumerus 30.9295 44.5479 68.9475
lradius 61.8851
lwrist 26.2145
lhand -50.8334 -0.505279
lfingers 7.12502
lthumb -23.3888 28.0935
rfemur -8.54988 0.778161 27.4473
rtibia 29.1375
rfoot -16.4121 -7.34948
rtoes 4.7168
lfemur -24.5444 4.4643 -8.47807
ltibia 61.1806
lfoot -9.08388 -4.96685
ltoes -24.4966
2012
root -3.52131 17.7763 26.0241 -537.284 -177.605 175.015
lowerback 13.3654 -0.1909 6.08274
upperback 3.02406 0.863005 5.73266
thorax -4.30524 0.377265 2.4624
lowerneck -5.66655 5.8374 -1.60263
upperneck 17.4785 8.76483 -3.50474
head 6.33503 3.87294 -0.222101
rclavicle -9.54166e-015 9.54166e-015
rhumerus -41.6489 1.71304 -73.3276
rradius 66.8318
rwrist 359.533
rhand -11.965 -25.35
rfingers 7.12502
rthumb 14.0907 -54.8522
lclavicle -9.54166e-015 9.54166e-015
lhumerus 28.2117 45.3853 67.4789
lradius 62.28
lwrist 26.1414
lhand -49.5151 -0.574497
lfingers 7.12502
lthumb -22.1236 28.1797
rfemur -7.89177 0.804489 27.6147
rtibia 29.0057
rfoot -16.8328 -7.32832
rtoes 4.84465
lfemur -25.5377 5.11655 -8.68582
ltibia 60.1454
lfoot -9.51881 -4.33039
ltoes -25.5105
2013
root -3.55032 17.7663 26.1899 -537.36 -177.425 175.211
lowerback 12.8046 -0.0718722 6.369
upperback 3.71603 0.918878 5.27602
thorax -3.25298 0.427293 1.80199
lowerneck -6.38148 5.7754 -1.09777
upperneck 17.2302 8.64087 -3.58512
head 6.403 3.83267 -0.316245
rclavicle -1.07344e-014 -4.77083e-014
rhumerus -40.7059 0.660637 -73.576
rradius 66.7746
rwrist 359.328
rhand -12.1654 -25.3447
rfingers 7.12502
rthumb 13.8976 -54.8603
lclavicle -1.07344e-014 -4.77083e-014
lhumerus 30.2332 46.2019 68.9602
lradius 62.1852
lwrist 26.0713
lhand -46.426 0.547639
lfingers 7.12502
lthumb -19.1554 29.6243
rfemur -7.11383 0.934043 27.5115
rtibia 28.8764
rfoot -17.0817 -7.5701
rtoes 3.3783
lfemur -26.3147 5.74348 -9.17847
ltibia 58.9655
lfoot -9.97307 -3.70499
ltoes -26.3952
2014
root -3.58347 17.7577 26.3552 -537.285 -177.301 175.409
lowerback 13.777 -0.159424 5.71574
upperback 3.12453 0.865777 5.34962
thorax -4.42395 0.379709 2.2618
lowerneck -5.81319 6.00675 -0.660704
upperneck 17.4583 8.99766 -4.1398
head 6.42865 3.9928 -0.54781
rclavicle 9.14409e-015 -9.54166e-015
rhumerus -41.2773 1.2597 -73.53
rradius 66.7446
rwrist 359.114
rhand -11.9842 -25.6878
rfingers 7.12502
rthumb 14.0722 -55.1913
lclavicle 9.14409e-015 -9.54166e-015
lhumerus 28.2339 47.1911 67.7419
lradius 62.497
lwrist 26.5984
lhand -45.0357 0.351767
lfingers 7.12502
lthumb -17.818 29.5555
rfemur -6.47716 1.03362 27.4099
rtibia 28.6656
rfoot -17.1831 -7.85894
rtoes 1.73403
lfemur -27.3319 6.34299 -9.68046
ltibia 57.6373
lfoot -10.0515 -3.24169
ltoes -26.086
